<svg width="73" height="68" fill="none" xmlns="http://www.w3.org/2000/svg"><g filter="url(#filter0_d_243_270)"><path d="M39.262 2.813v1.23c.713.14 1.403.316 2.027.492 1.426.399 2.273 1.945 1.894 3.445-.378 1.5-1.85 2.391-3.275 1.993-1.215-.34-2.351-.575-3.365-.586-.813-.012-1.638.199-2.161.515-.234.153-.346.282-.39.352a.58.58 0 00-.078.328v.07c.022.024.1.141.367.305.647.41 1.605.727 3.053 1.184l.1.035c1.237.386 2.886.914 4.223 1.793 1.526 1.008 2.908 2.683 2.941 5.261.034 2.637-1.27 4.56-2.974 5.684-.747.48-1.55.82-2.373 1.031v1.242c0 1.56-1.193 2.813-2.674 2.813-1.482 0-2.674-1.254-2.674-2.813v-1.335c-1.059-.27-2.028-.622-2.853-.915-.234-.082-.457-.164-.668-.234-1.404-.492-2.162-2.086-1.694-3.562.468-1.477 1.984-2.274 3.387-1.782.29.106.557.2.814.293 1.515.54 2.607.926 3.777.973.89.035 1.682-.188 2.139-.48.212-.141.312-.258.356-.34.045-.07.1-.211.09-.48V19.3c0-.117 0-.246-.446-.54-.635-.421-1.593-.75-3.02-1.206l-.211-.07c-1.203-.376-2.786-.88-4.056-1.688-1.504-.95-2.952-2.578-2.963-5.168-.012-2.684 1.437-4.524 3.086-5.555a8.45 8.45 0 012.25-.96V2.812c0-1.56 1.193-2.813 2.674-2.813 1.482 0 2.674 1.254 2.674 2.813h.023zM67.806 39.41c1.46 2.086 1.036 5.016-.947 6.55L52.754 56.895C50.147 58.91 47.005 60 43.763 60H8.065C6.093 60 4.5 58.324 4.5 56.25v-7.5C4.5 46.676 6.093 45 8.065 45h4.1l5.003-4.219c2.53-2.133 5.671-3.281 8.913-3.281h17.637c1.972 0 3.565 1.676 3.565 3.75S45.69 45 43.718 45h-8.913c-.98 0-1.783.844-1.783 1.875 0 1.031.803 1.875 1.783 1.875h13.437l13.336-10.336c1.983-1.535 4.769-1.09 6.228.996zM26.07 45h-.1.1z" fill="#fff"/></g><defs><filter id="filter0_d_243_270" x=".5" y="0" width="72.175" height="68" filterUnits="userSpaceOnUse" color-interpolation-filters="sRGB"><feFlood flood-opacity="0" result="BackgroundImageFix"/><feColorMatrix in="SourceAlpha" values="0 0 0 0 0 0 0 0 0 0 0 0 0 0 0 0 0 0 127 0" result="hardAlpha"/><feOffset dy="4"/><feGaussianBlur stdDeviation="2"/><feComposite in2="hardAlpha" operator="out"/><feColorMatrix values="0 0 0 0 0 0 0 0 0 0 0 0 0 0 0 0 0 0 0.25 0"/><feBlend in2="BackgroundImageFix" result="effect1_dropShadow_243_270"/><feBlend in="SourceGraphic" in2="effect1_dropShadow_243_270" result="shape"/></filter></defs></svg>46.875C33.0223 47.9062 33.8245 48.75 34.805 48.75H48.2417L61.5781 38.4141C63.5613 36.8789 66.3467 37.3242 67.8062 39.4102ZM26.07 45H25.9697C26.0032 45 26.0366 45 26.07 45Z" fill="white"/>
</g>
<defs>
<filter id="filter0_d_243_270" x="0.5" y="0" width="72.1746" height="68" filterUnits="userSpaceOnUse" color-interpolation-filters="sRGB">
<feFlood flood-opacity="0" result="BackgroundImageFix"/>
<feColorMatrix in="SourceAlpha" type="matrix" values="0 0 0 0 0 0 0 0 0 0 0 0 0 0 0 0 0 0 127 0" result="hardAlpha"/>
<feOffset dy="4"/>
<feGaussianBlur stdDeviation="2"/>
<feComposite in2="hardAlpha" operator="out"/>
<feColorMatrix type="matrix" values="0 0 0 0 0 0 0 0 0 0 0 0 0 0 0 0 0 0 0.25 0"/>
<feBlend mode="normal" in2="BackgroundImageFix" result="effect1_dropShadow_243_270"/>
<feBlend mode="normal" in="SourceGraphic" in2="effect1_dropShadow_243_270" result="shape"/>
</filter>
</defs>
</svg>
